# xmcd CD database file
#
# Track frame offsets:
#	150
#	13097
#	25954
#	39294
#	51348
#	64634
#	77301
#	91048
#	101691
#	113245
#
# Disc length: 1679 seconds
#
# Revision: 0
# Processed by: cddbd v1.5.2PL0 Copyright (c) Steve Scherf et al.
# Submitted via: CDex 1.51
#
DISCID=6e068d0a
DTITLE=Chico O´Farril - Cubajazz 3
DYEAR=2006
DGENRE=Jazz
TTITLE0=La Conparsa
TTITLE1=Descarga mº 2
TTITLE2=Descarga nº 1
TTITLE3=El amor es una cosa espñendorosa
TTITLE4=Almendra
TTITLE5=Bahia
TTITLE6=la bella cubana
TTITLE7=Madrid
TTITLE8=Mujer
TTITLE9=Ca Cucaracha
EXTD=YEAR: 2006
EXTT0=
EXTT1=
EXTT2=
EXTT3=
EXTT4=
EXTT5=
EXTT6=
EXTT7=
EXTT8=
EXTT9=
PLAYORDER=
